<svg width="13" height="38" viewBox="0 0 13 38" fill="none" xmlns="http://www.w3.org/2000/svg">
<path d="M2.4687 2.50426L2.46877 2.50417C3.4228 1.27622 4.43595 0.687855 5.85537 0.507267C5.93871 0.497017 6.1777 0.496284 6.46908 0.510151C6.75316 0.52367 7.01894 0.547688 7.14505 0.570747C8.29975 0.787678 9.25451 1.39348 10.1164 2.50398L10.1167 2.50426C10.7408 3.30719 11.2253 4.21363 11.6462 5.39736C12.0153 6.43664 12.1159 7.01147 12.0779 7.39882C11.9769 8.39154 11.5564 9.25935 10.7892 10.0233L10.7887 10.0238C10.6098 10.2023 10.3712 10.378 9.5436 10.9208C8.1983 11.8011 7.51758 12.3371 7.01709 12.9865L7.01634 12.9875C6.8734 13.174 6.75157 13.3509 6.67813 13.5945C6.61129 13.8162 6.59354 14.0666 6.57808 14.3762L6.57804 14.3771C6.56102 14.7306 6.57674 15.6657 6.60377 16.5681C6.63077 17.4693 6.67074 18.3946 6.70737 18.7299M2.4687 2.50426L7.63305 25.6256M2.4687 2.50426C1.84458 3.30719 1.36007 4.21363 0.939197 5.39736C0.570041 6.43676 0.469424 7.0116 0.50744 7.39894C0.608552 8.39162 1.02904 9.25939 1.7962 10.0233L1.79663 10.0238M2.4687 2.50426L1.79663 10.0238M6.70737 18.7299C6.75416 19.1688 6.96893 20.7172 7.2041 22.3277M6.70737 18.7299C6.70739 18.7301 6.70742 18.7304 6.70745 18.7306L7.20448 18.6762L6.70729 18.7291C6.70731 18.7294 6.70734 18.7296 6.70737 18.7299ZM7.2041 22.3277C7.20413 22.3279 7.20415 22.328 7.20418 22.3282L7.69893 22.256L7.20403 22.3271C7.20405 22.3273 7.20408 22.3275 7.2041 22.3277ZM7.2041 22.3277C7.3895 23.6165 7.50221 24.4722 7.63305 25.6256M7.63305 25.6256L8.12844 25.5696L7.63307 25.6258C7.63306 25.6258 7.63305 25.6257 7.63305 25.6256ZM1.79663 10.0238C1.97552 10.2023 2.21415 10.378 3.04177 10.9208C4.38707 11.8011 5.06779 12.3371 5.56828 12.9865L5.57026 12.9891M1.79663 10.0238L5.57026 12.9891M5.57026 12.9891C5.71242 13.1761 5.83434 13.3534 5.90761 13.5987C5.97419 13.8217 5.99186 14.0749 6.00731 14.3916L6.00735 14.3925M5.57026 12.9891L6.00735 14.3925M6.00735 14.3925C6.04033 15.093 5.9488 18.0428 5.87819 18.7133M6.00735 14.3925L5.87819 18.7133M4.95228 25.626L4.9523 25.6258C5.08314 24.4723 5.19585 23.6166 5.38124 22.3278C5.61641 20.7233 5.83134 19.168 5.87819 18.7133M4.95228 25.626L5.87826 18.7126C5.87824 18.7128 5.87822 18.713 5.87819 18.7133M4.95228 25.626C4.52682 29.366 4.2983 31.2758 4.22337 31.7431L4.22338 31.7431M4.95228 25.626L4.22338 31.7431M4.22338 31.7431L4.22295 31.7457M4.22338 31.7431L4.22295 31.7457M4.22295 31.7457C4.00916 33.0355 3.92975 34.5442 4.01789 35.3299M4.22295 31.7457L4.01789 35.3299M4.01789 35.3299C4.10499 36.1053 4.30754 36.6211 4.49843 36.8431L4.01789 35.3299Z" fill="url(#paint0_linear_1791_283)" stroke="white"/>
<defs>
<linearGradient id="paint0_linear_1791_283" x1="6.29268" y1="37.8457" x2="6.29268" y2="-0.000343323" gradientUnits="userSpaceOnUse">
<stop stop-color="#95BD09"/>
<stop offset="1" stop-color="#34A853"/>
</linearGradient>
</defs>
</svg>
