<svg 
    width="21" 
    height="18" 
    viewBox="0 0 21 18" 
    fill="none" 
    xmlns="http://www.w3.org/2000/svg"
>
<path d="M19.9886 15.5622L16.0423 12.0574C15.8642 11.8992 15.6227 11.8113 15.3694 11.8113H14.7242C15.8167 10.5705 16.4658 9.00967 16.4658 7.31179C16.4658 3.27273 12.7808 0 8.23291 0C3.68502 0 0 3.27273 0 7.31179C0 11.3508 3.68502 14.6236 8.23291 14.6236C10.1447 14.6236 11.9021 14.0471 13.2993 13.0768V13.6498C13.2993 13.8748 13.3983 14.0892 13.5764 14.2474L17.5226 17.7522C17.8947 18.0826 18.4963 18.0826 18.8645 17.7522L19.9846 16.7573C20.3567 16.4269 20.3567 15.8926 19.9886 15.5622ZM8.23291 11.8113C5.43451 11.8113 3.16651 9.80061 3.16651 7.31179C3.16651 4.82648 5.43056 2.81223 8.23291 2.81223C11.0313 2.81223 13.2993 4.82297 13.2993 7.31179C13.2993 9.79709 11.0353 11.8113 8.23291 11.8113Z" 
fill="black" 
fill-opacity="0.4"
/>
</svg>
